<svg width="759" height="258" viewBox="0 0 759 258" fill="none" xmlns="http://www.w3.org/2000/svg">
<path d="M163.743 13.65C176.874 13.5296 176.874 13.5295 181.445 17.2955C185.174 21.2749 186.163 24.7701 186.162 30.1647C186.165 30.7153 186.167 31.2663 186.17 31.8336C186.178 33.6845 186.181 35.5354 186.184 37.3864C186.188 38.7112 186.193 40.0361 186.198 41.361C186.211 44.9651 186.218 48.5693 186.224 52.1735C186.227 54.4251 186.232 56.6767 186.236 58.9283C186.25 65.9734 186.26 73.019 186.266 80.0641C186.273 88.1965 186.292 96.3292 186.32 104.462C186.342 110.747 186.352 117.032 186.354 123.318C186.356 127.072 186.362 130.827 186.38 134.581C186.396 138.114 186.4 141.646 186.393 145.179C186.392 146.474 186.396 147.769 186.406 149.064C186.419 150.836 186.414 152.608 186.404 154.38C186.412 154.888 186.42 155.397 186.428 155.922C186.366 160.819 184.642 164.403 181.265 167.85C176.629 170.964 172.533 171.845 167.077 171.802C166.18 171.808 166.179 171.808 165.264 171.814C163.273 171.824 161.283 171.819 159.292 171.814C157.859 171.818 156.426 171.823 154.993 171.829C151.111 171.841 147.229 171.841 143.347 171.837C140.103 171.834 136.859 171.838 133.615 171.842C125.963 171.852 118.31 171.851 110.657 171.843C102.767 171.835 94.8766 171.846 86.9863 171.865C83.5964 171.873 80.2063 171.878 76.8164 171.88H60.5752C58.5518 171.882 56.5283 171.886 54.5049 171.892C50.6998 171.903 46.8949 171.901 43.0898 171.887C41.6951 171.885 40.3 171.887 38.9053 171.894C36.9981 171.904 35.0917 171.895 33.1846 171.882C32.3615 171.893 32.361 171.893 31.5215 171.903C26.8774 171.841 23.2607 170.342 19.7119 167.349C19.3293 166.901 18.9469 166.452 18.5527 165.99C18.1591 165.547 17.7649 165.104 17.3594 164.647C14.9881 160.892 14.7035 156.802 14.7227 152.47C14.7194 151.929 14.7172 151.387 14.7139 150.829C14.7049 149.026 14.7059 147.223 14.707 145.42C14.7028 144.122 14.6978 142.825 14.6924 141.528C14.6799 138.012 14.6767 134.495 14.6758 130.979C14.6748 128.781 14.6717 126.583 14.668 124.385C14.6548 116.713 14.6483 109.041 14.6494 101.369C14.6503 94.2226 14.6357 87.0764 14.6133 79.9303C14.5947 73.7891 14.587 67.6476 14.5879 61.5065C14.5883 57.8414 14.5844 54.1764 14.5693 50.5114C14.5556 47.0643 14.5551 43.6167 14.5654 40.1696C14.5669 38.9069 14.5643 37.6441 14.5557 36.3815C14.5447 34.653 14.5506 32.9253 14.5615 31.1969C14.5542 30.7011 14.5476 30.2048 14.54 29.694C14.6011 25.3086 16.1355 21.6805 19.0186 18.4117C19.4213 18.0956 19.8243 17.7794 20.2393 17.4537C20.642 17.1267 21.045 16.7995 21.46 16.4625C24.8012 14.1662 27.5649 13.9686 31.5791 13.9772C32.1917 13.973 32.8044 13.9678 33.4355 13.9635C35.4924 13.9512 37.5496 13.949 39.6064 13.9469C41.0797 13.9403 42.5531 13.934 44.0264 13.9264C48.0319 13.9078 52.0374 13.8985 56.043 13.8922C58.5458 13.8881 61.049 13.8819 63.5518 13.8756C71.3836 13.8562 79.216 13.843 87.0479 13.8375C96.0867 13.8312 105.125 13.8063 114.164 13.7653C121.152 13.7346 128.139 13.7203 135.127 13.7184C139.3 13.7169 143.473 13.7086 147.646 13.6832C151.572 13.6599 155.499 13.6561 159.426 13.6686C160.865 13.6697 162.304 13.664 163.743 13.65ZM25.3438 109.641C25.3114 114.567 25.2784 119.494 25.2451 124.569C25.2332 128.982 25.2337 128.983 25.2266 133.396C25.2211 135.363 25.2098 137.33 25.1904 139.297C25.1661 141.806 25.159 144.315 25.1641 146.824C25.1625 148.179 25.1428 149.534 25.123 150.888C25.1279 151.691 25.1336 152.493 25.1387 153.32C25.1354 154.017 25.1313 154.714 25.1279 155.432C25.7602 158.21 26.8293 159.22 29.1162 160.895C31.1962 161.243 32.8616 161.373 34.9375 161.34C35.5209 161.345 36.105 161.351 36.7061 161.356C38.6595 161.369 40.612 161.355 42.5654 161.342C43.9664 161.346 45.3676 161.351 46.7686 161.358C50.5731 161.371 54.378 161.362 58.1826 161.348C62.1624 161.337 66.1422 161.343 70.1221 161.346C76.8059 161.35 83.49 161.339 90.1738 161.319C97.9031 161.296 105.632 161.296 113.361 161.308C120.794 161.319 128.227 161.314 135.66 161.302C138.825 161.297 141.989 161.298 145.153 161.303C148.879 161.309 152.605 161.3 156.331 161.281C157.699 161.276 159.068 161.276 160.436 161.281C162.302 161.287 164.167 161.276 166.033 161.26C166.847 161.269 166.847 161.269 167.678 161.278C170.185 161.239 171.771 160.943 173.968 159.704C175.742 157.676 175.845 156.752 175.833 154.087C175.838 153.279 175.843 152.472 175.848 151.64C175.835 150.754 175.822 149.868 175.809 148.955C175.808 147.996 175.809 147.038 175.811 146.08C175.811 143.514 175.791 140.949 175.766 138.383C175.745 135.976 175.745 133.568 175.742 131.161C175.724 124.12 175.674 117.08 175.628 110.04C175.555 94.3099 175.482 78.5801 175.406 62.3737H25.5654C25.4922 77.9719 25.4192 93.5703 25.3438 109.641ZM32.5547 24.4323C25.5657 24.5278 25.5654 24.5274 25.5654 51.7418H175.406V26.9342C173.06 24.5928 172.385 24.5575 169.222 24.5201C168.649 24.5245 168.094 24.5286 167.538 24.5328C165.642 24.5206 163.747 24.512 161.851 24.5162C160.458 24.5198 159.065 24.5192 157.672 24.5153C153.884 24.4999 150.096 24.4924 146.308 24.4957C143.089 24.4991 139.869 24.4998 136.65 24.4957C129.095 24.4857 121.54 24.4813 113.984 24.4889C106.122 24.4972 98.2604 24.496 90.3984 24.4772C83.6041 24.4608 76.809 24.4508 70.0146 24.4528C65.9688 24.4553 61.9228 24.4596 57.877 24.4498C54.0065 24.4382 50.1361 24.4302 46.2656 24.4401C44.8415 24.4451 43.4173 24.4491 41.9932 24.4518C40.0047 24.4412 38.0168 24.4314 36.0283 24.441C35.4179 24.4451 34.8249 24.4488 34.2324 24.4528C33.662 24.4457 33.1083 24.4391 32.5547 24.4323Z" fill="#B06EF0"/>
<path d="M14.9131 182.868C71.6253 182.868 128.337 182.868 186.768 182.868C186.768 186.611 186.768 190.353 186.768 194.209C130.056 194.209 73.3438 194.209 14.9131 194.209C14.9131 190.466 14.9131 186.724 14.9131 182.868Z" fill="#B06EF0"/>
<path d="M73.1449 76.5494C75.9894 76.798 78.1501 77.8971 80.6319 79.2489C81.7656 79.8623 81.7656 79.8623 82.9222 80.4881C83.7236 80.928 84.5249 81.3679 85.3505 81.8211C86.1893 82.2773 87.0284 82.7331 87.8676 83.1886C92.9649 85.9601 98.0481 88.7582 103.11 91.5933C106.209 93.3251 109.328 95.013 112.464 96.678C113.243 97.0937 114.023 97.5093 114.827 97.9376C116.366 98.7566 117.908 99.5713 119.452 100.381C120.15 100.754 120.848 101.126 121.568 101.509C122.506 102.004 122.506 102.004 123.463 102.509C124.985 103.484 124.985 103.484 126.406 105.61C126.328 107.423 126.328 107.423 125.696 109.154C124.397 110.02 124.397 110.02 122.678 110.616C122.046 110.84 121.414 111.063 120.763 111.294C116.974 112.508 113.18 113.701 109.362 114.824C111.431 118.626 113.783 122.027 116.419 125.456C117.151 126.415 117.883 127.375 118.614 128.335C118.965 128.797 119.316 129.258 119.678 129.734C121.249 131.825 122.764 133.954 124.275 136.088C123.24 138.701 121.93 139.746 119.571 141.227C118.99 141.596 118.41 141.965 117.812 142.345C117.367 142.619 116.922 142.893 116.464 143.176C114.093 142.184 112.944 141.119 111.476 139.028C111.088 138.483 110.7 137.937 110.3 137.375C109.903 136.804 109.505 136.233 109.096 135.645C108.307 134.528 107.517 133.411 106.727 132.295C106.341 131.749 105.955 131.203 105.557 130.641C103.815 128.189 103.815 128.189 102.056 125.75C101.719 125.283 101.383 124.817 101.036 124.336C100.737 124.004 100.438 123.672 100.13 123.33C99.6617 123.33 99.193 123.33 98.7101 123.33C97.7814 124.603 97.7814 124.603 96.882 126.251C96.5246 126.855 96.1671 127.459 95.7988 128.082C95.0517 129.365 94.3137 130.654 93.5851 131.947C90.8505 136.519 90.8505 136.519 88.7996 137.378C87.4227 137.575 87.4227 137.575 85.2174 137.505C83.3841 134.789 82.6138 132.447 81.9912 129.241C81.8992 128.78 81.8072 128.319 81.7125 127.844C81.514 126.847 81.3185 125.849 81.1258 124.851C80.6051 122.156 80.063 119.465 79.5223 116.773C79.4101 116.212 79.2979 115.651 79.1823 115.073C78.3571 110.977 77.473 106.896 76.5541 102.819C76.4249 102.245 76.2956 101.672 76.1624 101.081C75.6558 98.8391 75.1472 96.5981 74.6326 94.3585C71.9128 82.5185 71.9128 82.5185 71.7246 77.967C72.1933 77.4992 72.662 77.0314 73.1449 76.5494Z" fill="#6300C3"/>
<path d="M66.7537 205.549C106.124 205.549 145.495 205.549 186.058 205.549C186.058 209.058 186.058 212.566 186.058 216.181C146.688 216.181 107.317 216.181 66.7537 216.181C66.7537 212.673 66.7537 209.164 66.7537 205.549Z" fill="#6A2BA7"/>
<path d="M14.9131 227.522C53.5805 227.522 92.2479 227.522 132.087 227.522C132.087 231.03 132.087 234.539 132.087 238.154C93.4196 238.154 54.7522 238.154 14.9131 238.154C14.9131 234.645 14.9131 231.137 14.9131 227.522Z" fill="#B06EF0"/>
<path d="M144.87 227.522C158.462 227.522 172.054 227.522 186.058 227.522C186.058 231.03 186.058 234.539 186.058 238.154C172.466 238.154 158.874 238.154 144.87 238.154C144.87 234.645 144.87 231.137 144.87 227.522Z" fill="#DFBEFF"/>
<path d="M14.9131 205.549C28.0366 205.549 41.16 205.549 54.6812 205.549C54.6812 209.058 54.6812 212.566 54.6812 216.181C41.5577 216.181 28.4342 216.181 14.9131 216.181C14.9131 212.673 14.9131 209.164 14.9131 205.549Z" fill="#3A056D"/>
<path d="M73.855 32.6044C77.6045 32.6044 81.3541 32.6044 85.2173 32.6044C85.2173 36.3468 85.2173 40.0892 85.2173 43.945C81.4677 43.945 77.7182 43.945 73.855 43.945C73.855 40.2026 73.855 36.4602 73.855 32.6044Z" fill="#3A056D"/>
<path d="M33.3767 32.6044C37.1263 32.6044 40.8758 32.6044 44.739 32.6044C44.739 36.3468 44.739 40.0892 44.739 43.945C40.9895 43.945 37.2399 43.945 33.3767 43.945C33.3767 40.2026 33.3767 36.4602 33.3767 32.6044Z" fill="#3A056D"/>
<path d="M53.9709 33.3132C57.4862 33.3132 61.0014 33.3132 64.6231 33.3132C64.6231 36.5878 64.6231 39.8625 64.6231 43.2363C61.1079 43.2363 57.5927 43.2363 53.9709 43.2363C53.9709 39.9617 53.9709 36.6871 53.9709 33.3132Z" fill="#DFBEFF"/>
<path d="M334.419 90.2681C330.605 86.4546 326.04 83.5273 320.723 81.4863C315.459 79.4453 309.846 78.4248 303.884 78.4248C297.815 78.4248 292.256 79.4722 287.207 81.5669C282.212 83.6616 277.888 86.6694 274.236 90.5903C270.583 94.4575 267.764 99.0767 265.776 104.448C263.789 109.765 262.795 115.673 262.795 122.172C262.795 128.725 263.789 134.741 265.776 140.219C267.817 145.644 270.664 150.344 274.316 154.318C278.022 158.293 282.4 161.354 287.449 163.503C292.498 165.651 298.057 166.726 304.126 166.726C309.39 166.726 314.224 165.92 318.628 164.309C323.032 162.644 326.899 160.28 330.229 157.219C333.613 154.104 336.379 150.371 338.528 146.02C340.676 141.669 342.1 136.835 342.798 131.518H304.609V115.083H361.57L362.134 123.139C362.134 132.324 360.71 140.729 357.864 148.356C355.071 155.93 351.069 162.509 345.859 168.095C340.649 173.627 334.473 177.897 327.329 180.905C320.186 183.913 312.29 185.417 303.643 185.417C294.727 185.417 286.455 183.833 278.828 180.664C271.255 177.495 264.622 173.09 258.928 167.451C253.289 161.757 248.884 155.097 245.715 147.47C242.6 139.843 241.042 131.545 241.042 122.575C241.042 113.659 242.6 105.388 245.715 97.7607C248.884 90.0801 253.262 83.3931 258.848 77.6997C264.487 72.0063 271.094 67.6021 278.667 64.4868C286.294 61.3179 294.539 59.7334 303.401 59.7334C311.833 59.7334 319.89 61.1836 327.571 64.084C335.305 66.9844 342.207 71.147 348.276 76.5718L334.419 90.2681ZM452.046 173.654C442.002 180.959 431.018 184.611 419.094 184.611C410.447 184.611 402.686 182.731 395.811 178.972C388.936 175.212 383.484 170.083 379.456 163.583C375.481 157.084 373.494 149.726 373.494 141.508C373.494 133.72 375.293 126.765 378.892 120.642C382.544 114.519 387.512 109.685 393.796 106.14C400.134 102.595 407.278 100.822 415.227 100.822C423.499 100.822 430.75 102.783 436.98 106.704C443.264 110.571 448.152 115.969 451.643 122.897C455.134 129.772 456.88 137.775 456.88 146.906V149.484H394.844C395.811 153.137 397.502 156.359 399.919 159.152C402.39 161.945 405.452 164.121 409.104 165.678C412.756 167.236 416.865 168.015 421.431 168.015C430.024 168.015 437.974 165.222 445.278 159.636L452.046 173.654ZM394.038 137.883H438.511C438.081 133.854 436.846 130.336 434.805 127.329C432.817 124.321 430.212 121.984 426.99 120.319C423.821 118.601 420.249 117.741 416.274 117.741C412.246 117.741 408.647 118.601 405.479 120.319C402.31 122.038 399.731 124.428 397.744 127.49C395.757 130.498 394.521 133.962 394.038 137.883ZM551.626 183H531.807V139.575C531.807 133.076 530.168 127.973 526.892 124.267C523.669 120.561 519.185 118.708 513.438 118.708C509.409 118.708 505.837 119.648 502.722 121.528C499.607 123.354 497.163 125.986 495.391 129.423C493.618 132.861 492.732 136.862 492.732 141.428V183H472.913V102.434H489.268L489.912 115.405C492.812 110.678 496.76 107.08 501.755 104.609C506.75 102.084 512.444 100.822 518.835 100.822C528.987 100.822 536.99 103.911 542.844 110.087C548.699 116.264 551.626 124.724 551.626 135.466V183Z" fill="#B06EF0"/>
<path d="M675.698 62.1504V128.779C675.698 140.488 673.604 150.585 669.414 159.072C665.278 167.558 659.316 174.084 651.528 178.649C643.74 183.161 634.421 185.417 623.572 185.417C612.776 185.417 603.484 183.161 595.696 178.649C587.908 174.084 581.919 167.558 577.729 159.072C573.594 150.585 571.526 140.488 571.526 128.779V62.1504H592.795V126.362C592.795 135.117 593.977 142.502 596.34 148.518C598.704 154.533 602.168 159.072 606.733 162.133C611.353 165.195 616.965 166.726 623.572 166.726C630.232 166.726 635.845 165.195 640.41 162.133C645.029 159.072 648.521 154.533 650.884 148.518C653.247 142.502 654.429 135.117 654.429 126.362V62.1504H675.698ZM697.209 183V62.1504H718.479V183H697.209Z" fill="#6300C3"/>
</svg>
